<svg xmlns="http://www.w3.org/2000/svg" width="49.237" height="49.237" viewBox="0 0 49.237 49.237">
  <g id="calendar-outline" transform="translate(-44.528 -46.5)" opacity="0.15">
    <rect id="Rectangle_813" data-name="Rectangle 813" width="46.237" height="42.905" rx="5" transform="translate(46.028 51.332)" fill="none" stroke="#fff" stroke-linejoin="round" stroke-width="3"/>
    <path id="Path_3080" data-name="Path 3080" d="M86.882,80H55.356A7.559,7.559,0,0,0,48,87.73v6.993h1.778a3.893,3.893,0,0,1,3.557-3.681H88.9a3.893,3.893,0,0,1,3.557,3.681h1.778V87.73A7.559,7.559,0,0,0,86.882,80Z" transform="translate(-1.972 -28.727)" fill="#fff"/>
    <circle id="Ellipse_31" data-name="Ellipse 31" cx="2.708" cy="2.708" r="2.708" transform="translate(71.022 65.912)" fill="#fff"/>
    <circle id="Ellipse_32" data-name="Ellipse 32" cx="2.708" cy="2.708" r="2.708" transform="translate(79.769 65.912)" fill="#fff"/>
    <circle id="Ellipse_33" data-name="Ellipse 33" cx="2.708" cy="2.708" r="2.708" transform="translate(71.022 74.659)" fill="#fff"/>
    <circle id="Ellipse_34" data-name="Ellipse 34" cx="2.708" cy="2.708" r="2.708" transform="translate(79.769 74.659)" fill="#fff"/>
    <ellipse id="Ellipse_35" data-name="Ellipse 35" cx="2.499" cy="2.708" rx="2.499" ry="2.708" transform="translate(53.526 74.659)" fill="#fff"/>
    <ellipse id="Ellipse_36" data-name="Ellipse 36" cx="2.499" cy="2.708" rx="2.499" ry="2.708" transform="translate(62.274 74.659)" fill="#fff"/>
    <ellipse id="Ellipse_37" data-name="Ellipse 37" cx="2.499" cy="2.708" rx="2.499" ry="2.708" transform="translate(53.526 83.407)" fill="#fff"/>
    <ellipse id="Ellipse_38" data-name="Ellipse 38" cx="2.499" cy="2.708" rx="2.499" ry="2.708" transform="translate(62.274 83.407)" fill="#fff"/>
    <circle id="Ellipse_39" data-name="Ellipse 39" cx="2.708" cy="2.708" r="2.708" transform="translate(71.022 83.407)" fill="#fff"/>
    <path id="Path_3081" data-name="Path 3081" d="M128,48v3.545" transform="translate(-72.938 0)" fill="none" stroke="#fff" stroke-linecap="round" stroke-linejoin="round" stroke-width="3"/>
    <path id="Path_3082" data-name="Path 3082" d="M384,48v3.545" transform="translate(-300.579 0)" fill="none" stroke="#fff" stroke-linecap="round" stroke-linejoin="round" stroke-width="3"/>
  </g>
</svg>
