<svg id="Group_1600" data-name="Group 1600" xmlns="http://www.w3.org/2000/svg" width="42.844" height="42.844" viewBox="0 0 42.844 42.844">
  <g id="chatbubbles-sharp">
    <path id="Path_3165" data-name="Path 3165" d="M108.6,58.819c-.074-.106-.144-.216-.217-.319a16.693,16.693,0,0,1-2.843-9.3c-.031-9.5,7.982-17.2,17.889-17.2a17.765,17.765,0,0,1,17.539,13.687,16.525,16.525,0,0,1,.383,3.522,17.471,17.471,0,0,1-17.612,17.416,21.208,21.208,0,0,1-4.861-.793c-1.164-.319-2.317-.741-2.616-.855a1.957,1.957,0,0,0-1.137-.123l-7.4,2.14a.383.383,0,0,1-.478-.465l1.695-6.454c.118-.478.133-.568-.338-1.257Z" transform="translate(-105.54 -32)" fill="#fff"/>
    <path id="Path_3166" data-name="Path 3166" d="M32.472,218.542a15.81,15.81,0,0,0,2.224.2,20.253,20.253,0,0,0,11-3.079,17.605,17.605,0,0,0,5.077-4.717,19.772,19.772,0,0,0,3.854-11.905c0-.3-.011-.587-.021-.876a.415.415,0,0,1,.721-.3,15.183,15.183,0,0,1,1.421,18.671c-.236.361-.37.639-.329.824l1.347,6.91a.383.383,0,0,1-.5.433l-6.5-2.318a1.611,1.611,0,0,0-1.236.021,17.268,17.268,0,0,1-6.252,1.236,16.2,16.2,0,0,1-11.154-4.4.41.41,0,0,1,.35-.7Z" transform="translate(-16.457 -181.878)" fill="#fff"/>
  </g>
  <g id="Group_1601" data-name="Group 1601" transform="translate(6.795 15.718)">
    <circle id="Ellipse_68" data-name="Ellipse 68" cx="2.5" cy="2.5" r="2.5" transform="translate(17.194 0.386)" fill="#00afa9"/>
    <circle id="Ellipse_69" data-name="Ellipse 69" cx="2.5" cy="2.5" r="2.5" transform="translate(8.194 0.386)" fill="#00afa9"/>
    <circle id="Ellipse_70" data-name="Ellipse 70" cx="2.5" cy="2.5" r="2.5" transform="translate(0.194 0.386)" fill="#00afa9"/>
  </g>
</svg>
