<svg xmlns="http://www.w3.org/2000/svg" width="52.011" height="46.24" viewBox="0 0 52.011 46.24">
  <g id="edit" transform="translate(0 0.075)" opacity="0.15">
    <path id="Path_3084" data-name="Path 3084" d="M36.327,31.076l2.89-2.89a.726.726,0,0,1,1.237.515v13.13a4.335,4.335,0,0,1-4.334,4.334H4.334A4.335,4.335,0,0,1,0,41.831V10.045A4.335,4.335,0,0,1,4.334,5.711h24.7a.727.727,0,0,1,.515,1.237l-2.89,2.89a.716.716,0,0,1-.515.208H4.334V41.831H36.12V31.582A.71.71,0,0,1,36.327,31.076ZM50.468,12.854,26.756,36.566l-8.163.9a3.73,3.73,0,0,1-4.118-4.118l.9-8.163L39.091,1.476a5.27,5.27,0,0,1,7.468,0l3.9,3.9a5.289,5.289,0,0,1,.009,7.477Zm-8.922,2.79L36.3,10.4,19.523,27.184l-.659,5.9,5.9-.659Zm5.851-7.2-3.9-3.9a.943.943,0,0,0-1.336,0l-2.79,2.79,5.246,5.246,2.79-2.79A.962.962,0,0,0,47.4,8.447Z" transform="translate(0 0)" fill="#fff"/>
  </g>
</svg>
