<svg id="globe" xmlns="http://www.w3.org/2000/svg" width="21.167" height="21.167" viewBox="0 0 21.167 21.167">
  <path id="Path_3034" data-name="Path 3034" d="M0,10.584A10.584,10.584,0,1,1,10.584,21.167,10.584,10.584,0,0,1,0,10.584ZM9.922,1.425a4.655,4.655,0,0,0-2.5,2.454,10.544,10.544,0,0,0-.619,1.413H9.922V1.425ZM5.411,5.292H2.983a9.294,9.294,0,0,1,4.064-3.27,8.864,8.864,0,0,0-.79,1.234A12.244,12.244,0,0,0,5.411,5.292Zm-.77,4.63H1.347a9.163,9.163,0,0,1,.868-3.307H5.054a18.061,18.061,0,0,0-.413,3.307ZM6.412,6.615h3.51V9.922H5.967a16.537,16.537,0,0,1,.445-3.307Zm4.833,0V9.922H15.2a16.53,16.53,0,0,0-.446-3.307Zm-5.279,4.63H9.922v3.307H6.412a16.537,16.537,0,0,1-.447-3.307Zm5.279,0v3.307h3.51a16.476,16.476,0,0,0,.447-3.307Zm-4.439,4.63H9.922v3.867a4.655,4.655,0,0,1-2.5-2.454,10.544,10.544,0,0,1-.619-1.413Zm.241,3.27a8.859,8.859,0,0,1-.79-1.234,12.261,12.261,0,0,1-.847-2.036H2.983a9.292,9.292,0,0,0,4.064,3.27ZM5.054,14.553H2.215a9.205,9.205,0,0,1-.868-3.307H4.641A18.128,18.128,0,0,0,5.054,14.553Zm9.066,4.593a9.292,9.292,0,0,0,4.064-3.27H15.756a12.264,12.264,0,0,1-.847,2.036,8.848,8.848,0,0,1-.79,1.234Zm-2.875-3.27h3.116a10.54,10.54,0,0,1-.619,1.413,4.664,4.664,0,0,1-2.5,2.454V15.875Zm4.868-1.323h2.839a9.163,9.163,0,0,0,.868-3.307H16.526a18.058,18.058,0,0,1-.413,3.307Zm3.707-4.63H16.526a18.058,18.058,0,0,0-.413-3.307h2.839A9.163,9.163,0,0,1,19.821,9.922ZM14.91,3.256a12.244,12.244,0,0,1,.847,2.036h2.428a9.292,9.292,0,0,0-4.064-3.27,8.98,8.98,0,0,1,.79,1.234Zm-.549,2.036H11.245V1.425a4.655,4.655,0,0,1,2.5,2.454,10.536,10.536,0,0,1,.619,1.413Z" fill="#38a089" fill-rule="evenodd"/>
</svg>
