<svg xmlns="http://www.w3.org/2000/svg" width="24.237" height="23.478" viewBox="0 0 24.237 23.478">
  <path id="hdrPrayIcon" d="M1.555,21.3a5.294,5.294,0,0,0,.861,2.064l.078.117H1.13l-.022-.026Q-1.1,20.907,1.1,17.3q2.182-3.577,8.713-8.183l.05-.035,4.362,4.1V10a2.75,2.75,0,0,1,1-2.163l3.034-2.659L16.444,3.44a.766.766,0,0,1-.255-.584.765.765,0,0,1,.254-.584L18.813,0l.949.911L17.8,2.784a.1.1,0,0,0,0,.142l1.424,1.366,2.028-1.944.949.91L20.2,5.181l3.034,2.658a2.752,2.752,0,0,1,1,2.164V23.478H22.9V10.5a2.613,2.613,0,0,0-.951-2.051l-2.7-2.362-.021.021-.021-.021L16.511,8.453a2.606,2.606,0,0,0-.951,2.05v3.928A12.084,12.084,0,0,1,18.2,18.139v0a9,9,0,0,1,0,5.274l-.014.058H16.74l.044-.1a6.232,6.232,0,0,0-.428-5.993,26.15,26.15,0,0,0-6.5-6.512q-5.574,3.86-7.434,6.99v0a5.291,5.291,0,0,0-.861,2.061,4.148,4.148,0,0,0,0,1.377Z" fill="#38a089" fill-rule="evenodd"/>
</svg>
