<svg xmlns="http://www.w3.org/2000/svg" xmlns:xlink="http://www.w3.org/1999/xlink" width="1482" height="197" viewBox="0 0 1482 197">
  <defs>
    <clipPath id="clip-path">
      <rect id="img01" width="1482" height="197" rx="12" transform="translate(219 458)" fill="#f18447"/>
    </clipPath>
  </defs>
  <g id="Mask_Group_2" data-name="Mask Group 2" transform="translate(-219 -458)" opacity="0.07" clip-path="url(#clip-path)">
    <path id="Path_2989" data-name="Path 2989" d="M817.482,144.28c5.659,1.832,11.264,3.611,16.87,5.174,5.659,1.509,11.264,2.964,16.923,4.1,11.318,2.156,22.636,3.5,33.685,3.126a125.079,125.079,0,0,0,32.283-5.174,232.33,232.33,0,0,0,31.044-12.127c20.642-9.593,42.039-20.7,65.052-29.05,5.713-2.156,11.534-4.1,17.462-5.875,5.875-1.779,11.8-3.449,17.84-4.9a347.063,347.063,0,0,1,36.326-6.683c12.181-1.617,24.415-2.641,36.649-3.18,6.09-.269,12.234-.431,18.324-.485l17.57-.162,668.325-.755a154.252,154.252,0,0,1,19.888.808,113,113,0,0,1,20.7,4.312,118.835,118.835,0,0,1,81.436,89.629,120.049,120.049,0,0,1,2.318,21.019l.054,2.641v353.88l-.108,5.174c-.162,3.5-.378,7.06-.863,10.51a117.266,117.266,0,0,1-12.719,40.206,119.588,119.588,0,0,1-25.978,33.146,118.337,118.337,0,0,1-77.286,30.02l-70.6.054H160.355l-5.282-.108A118.533,118.533,0,0,1,42.485,572.482l-.377-5.282L42,561.919V205.506c.054-1.779.054-3.5.162-5.282a113.816,113.816,0,0,1,3.072-20.912,118.389,118.389,0,0,1,105.2-90.6c3.5-.323,7.114-.431,10.51-.431h43.925l481.211-.054,34.763.162c11.264-.054,22.474-.485,33.577-1.4a394.642,394.642,0,0,0,65.86-10.617c10.833-2.695,21.558-5.982,32.391-9.647,10.779-3.665,21.612-7.761,32.877-11.8,11.21-3.988,22.906-7.923,35.3-10.4a116.375,116.375,0,0,1,18.917-2.371,111.977,111.977,0,0,1,19.025.916,102.852,102.852,0,0,1,18.217,4.2A129.4,129.4,0,0,1,993.991,54a191.738,191.738,0,0,1,30.559,18.432A263.577,263.577,0,0,0,991.242,61.6a122.476,122.476,0,0,0-33.362-3.773,102.51,102.51,0,0,0-31.637,6.521c-10.24,3.773-20.265,8.839-30.559,14.121-20.48,10.725-42.308,21.99-65.537,30.182a326.947,326.947,0,0,1-71.9,16.654c-12.18,1.4-24.415,2.318-36.6,2.749-3.072.108-6.09.162-9.162.269-3.018.054-5.875.054-8.839.054l-17.57.054-481.211-.054H160.948c-2.479.054-4.743.108-7.06.323a74.178,74.178,0,0,0-13.743,2.425,78.964,78.964,0,0,0-44.518,31.906A77.8,77.8,0,0,0,84.47,188.475a79.682,79.682,0,0,0-2.048,13.8c-.054,1.186-.054,2.318-.108,3.5V561.488l.108,3.5.27,3.5a79.487,79.487,0,0,0,7.492,26.732A77.637,77.637,0,0,0,106.675,617.7a77.832,77.832,0,0,0,50.339,21.558l139.752.108H1762.778l70.065-.054a78.272,78.272,0,0,0,76.586-68.232c.323-2.318.485-4.635.593-6.953l.108-3.611V206.692l-.054-1.779a80.115,80.115,0,0,0-1.509-13.905,78.471,78.471,0,0,0-53.788-59.178,73.007,73.007,0,0,0-13.636-2.856,127.507,127.507,0,0,0-15.2-.593l-668.326-.755-17.57-.162c-5.605,0-11.264,0-16.869.216q-16.816.485-33.469,2.371a433.516,433.516,0,0,0-65.483,13.151c-21.666,5.929-43.171,13.959-66.346,21.127a218.549,218.549,0,0,1-36.218,8.192,131.626,131.626,0,0,1-37.673-.431C859.09,168.156,837.1,157.377,817.482,144.28Z" transform="translate(-14.131 450.983)" fill="#fff"/>
  </g>
</svg>
