<svg id="notifications-outline" xmlns="http://www.w3.org/2000/svg" width="19.849" height="19.913" viewBox="0 0 19.849 19.913">
  <path id="Vector" d="M19.424,14.834a1.44,1.44,0,0,1,.2,1.79,1.7,1.7,0,0,1-1.611.9H1.84a1.709,1.709,0,0,1-1.617-.9,1.436,1.436,0,0,1,.208-1.8l.256-.285A8.226,8.226,0,0,0,2.56,8.826,6.307,6.307,0,0,1,6.873,2.35a.2.2,0,0,0,.111-.094A2.761,2.761,0,0,1,9.929,0a2.761,2.761,0,0,1,2.945,2.255.217.217,0,0,0,.12.1q4.3,1.629,4.3,6.472a8.24,8.24,0,0,0,1.868,5.721l.255.285,0,0Zm-1.011.895h0l-.247-.276a9.529,9.529,0,0,1-2.215-6.624,5.058,5.058,0,0,0-3.432-5.21,1.5,1.5,0,0,1-.91-.89c-.006-.014-.011-.028-.015-.043s-.009-.029-.012-.044a1.544,1.544,0,0,0-1.65-1.29,1.544,1.544,0,0,0-1.65,1.29q-.005.022-.012.043t-.015.042a1.493,1.493,0,0,1-.919.894A5.054,5.054,0,0,0,3.91,8.826,9.515,9.515,0,0,1,1.69,15.45l-.251.279a.2.2,0,0,0-.035.242.454.454,0,0,0,.436.2H18.017a.443.443,0,0,0,.428-.2.2.2,0,0,0-.033-.244Z" fill="#38a089" fill-rule="evenodd"/>
  <path id="Vector-2" data-name="Vector" d="M6.031,0V.538q0,.014,0,.029t0,.029A2.7,2.7,0,0,1,3.016,3.362,2.7,2.7,0,0,1,0,.6Q0,.581,0,.567T0,.538V0H1.35V.508a1.488,1.488,0,0,0,1.666,1.5A1.488,1.488,0,0,0,4.681.508V0Z" transform="translate(6.913 16.551)" fill="#38a089" fill-rule="evenodd"/>
</svg>
