<svg id="phone-portrait-outline" xmlns="http://www.w3.org/2000/svg" width="12.55" height="21.35" viewBox="0 0 12.55 21.35">
  <g id="phone-portrait-outline-2" data-name="phone-portrait-outline">
    <path id="Vector" d="M0,18.675v-16A2.577,2.577,0,0,1,.783.783,2.577,2.577,0,0,1,2.675,0h7.2a2.577,2.577,0,0,1,1.892.783,2.578,2.578,0,0,1,.783,1.892v16A2.675,2.675,0,0,1,9.875,21.35h-7.2a2.577,2.577,0,0,1-1.892-.784A2.577,2.577,0,0,1,0,18.675Zm1.35-16v16a1.277,1.277,0,0,0,.388.937A1.277,1.277,0,0,0,2.675,20h7.2A1.325,1.325,0,0,0,11.2,18.675v-16a1.277,1.277,0,0,0-.388-.937,1.277,1.277,0,0,0-.937-.388h-7.2a1.277,1.277,0,0,0-.937.388,1.277,1.277,0,0,0-.388.937Z" fill="#38a089" fill-rule="evenodd"/>
    <path id="Vector-2" data-name="Vector" d="M.675,0h1.05A.988.988,0,0,1,2.45.3a1.007,1.007,0,0,1,.242.375,1.031,1.031,0,0,1,.058.35.022.022,0,0,0,.025.025h2.8A.025.025,0,0,0,5.6,1.025a1.031,1.031,0,0,1,.058-.35A1.007,1.007,0,0,1,5.9.3.988.988,0,0,1,6.625,0h1.05a.65.65,0,0,1,.477.2.65.65,0,0,1,.2.477.675.675,0,0,1-.675.675H6.928A1.178,1.178,0,0,1,5.575,2.4h-2.8A1.325,1.325,0,0,1,1.8,2a1.326,1.326,0,0,1-.367-.647H.675a.65.65,0,0,1-.477-.2A.65.65,0,0,1,0,.675.65.65,0,0,1,.2.2.65.65,0,0,1,.675,0Z" transform="translate(2.1)" fill="#38a089" fill-rule="evenodd"/>
  </g>
</svg>
