<svg id="search" xmlns="http://www.w3.org/2000/svg" width="19.343" height="20.175" viewBox="0 0 19.343 20.175">
  <g id="Ellipse_30">
    <path id="Vector" d="M0,8.265A7.963,7.963,0,0,1,2.421,2.421,7.963,7.963,0,0,1,8.265,0a7.963,7.963,0,0,1,5.844,2.421A7.963,7.963,0,0,1,16.53,8.265a7.963,7.963,0,0,1-2.421,5.844A7.963,7.963,0,0,1,8.265,16.53a7.963,7.963,0,0,1-5.844-2.421A7.963,7.963,0,0,1,0,8.265Zm1.35,0a6.663,6.663,0,0,0,2.025,4.89,6.663,6.663,0,0,0,4.89,2.025,6.663,6.663,0,0,0,4.89-2.025,6.663,6.663,0,0,0,2.025-4.89,6.662,6.662,0,0,0-2.025-4.89A6.663,6.663,0,0,0,8.265,1.35a6.663,6.663,0,0,0-4.89,2.025A6.663,6.663,0,0,0,1.35,8.265Z" fill="#38a089" fill-rule="evenodd"/>
  </g>
  <path id="Vector-2" data-name="Vector" d="M6.175,5.721l-5-5.5A.65.65,0,0,0,.707,0,.65.65,0,0,0,.221.176.65.65,0,0,0,0,.643a.65.65,0,0,0,.175.486l5,5.5a.675.675,0,1,0,1-.908Z" transform="translate(12.993 13.325)" fill="#38a089" fill-rule="evenodd"/>
</svg>
