<svg xmlns="http://www.w3.org/2000/svg" width="44.571" height="56.095" viewBox="0 0 44.571 56.095">
  <g id="solid_clipboard-check" data-name="solid clipboard-check" transform="translate(5 5)" fill="none" opacity="0.25">
    <path d="M30.25,5.762h-7.2a5.762,5.762,0,0,0-11.524,0h-7.2A4.323,4.323,0,0,0,0,10.083v31.69a4.323,4.323,0,0,0,4.321,4.321H30.25a4.323,4.323,0,0,0,4.321-4.321V10.083A4.323,4.323,0,0,0,30.25,5.762ZM17.286,3.6a2.161,2.161,0,1,1-2.161,2.161A2.156,2.156,0,0,1,17.286,3.6ZM28.2,24.47,15.323,37.236a1.081,1.081,0,0,1-1.53-.009l-7.436-7.5a1.081,1.081,0,0,1,.009-1.53l2.557-2.539a1.081,1.081,0,0,1,1.53.009l4.141,4.177,9.543-9.471a1.081,1.081,0,0,1,1.53.009l2.539,2.557A1.081,1.081,0,0,1,28.2,24.47Z" stroke="none"/>
    <path d="M 17.28554534912109 -7.62939453125e-06 C 14.10752296447754 -7.62939453125e-06 11.52370071411133 2.583827972412109 11.52370071411133 5.761848449707031 L 4.321390151977539 5.761848449707031 C 1.935623168945313 5.761848449707031 0 7.697471618652344 0 10.08323669433594 L 0 41.77339172363281 C 0 44.15916061401367 1.935623168945313 46.09478378295898 4.321390151977539 46.09478378295898 L 30.24970054626465 46.09478378295898 C 32.63546752929688 46.09478378295898 34.57109069824219 44.15916061401367 34.57109069824219 41.77339172363281 L 34.57109069824219 10.08323669433594 C 34.57109069824219 7.697471618652344 32.63546752929688 5.761848449707031 30.24970054626465 5.761848449707031 L 23.04738998413086 5.761848449707031 C 23.04738998413086 2.583827972412109 20.46356773376465 -7.62939453125e-06 17.28554534912109 -7.62939453125e-06 M 17.28554534912109 7.922538757324219 C 16.08815574645996 7.922538757324219 15.12485694885254 6.959228515625 15.12485694885254 5.761848449707031 C 15.12485694885254 4.564460754394531 16.08815574645996 3.601150512695313 17.28554534912109 3.601150512695313 C 18.48293495178223 3.601150512695313 19.44623565673828 4.564460754394531 19.44623565673828 5.761848449707031 C 19.44623565673828 6.959228515625 18.48293495178223 7.922538757324219 17.28554534912109 7.922538757324219 M 14.56650924682617 37.548828125 C 14.28670501708984 37.548828125 14.00626182556152 37.44077682495117 13.79242324829102 37.22693634033203 L 6.356044769287109 29.7275390625 C 5.932901382446289 29.30439376831055 5.941911697387695 28.62018203735352 6.365045547485352 28.1970386505127 L 8.921867370605469 25.65823745727539 C 9.131160736083984 25.44893836975098 9.404415130615234 25.34536933898926 9.67827033996582 25.3453483581543 C 9.958074569702148 25.3453254699707 10.23851203918457 25.45339965820313 10.45235633850098 25.66723823547363 L 14.59367942810059 29.84457206726074 L 24.13674545288086 20.37353897094727 C 24.34603881835938 20.16424369812012 24.61930084228516 20.0606517791748 24.89315795898438 20.0606517791748 C 25.1729621887207 20.0606517791748 25.45339584350586 20.16869926452637 25.66723442077637 20.38253784179688 L 28.20604515075684 22.93935966491699 C 28.62919044494629 23.37149429321289 28.62017822265625 24.04671669006348 28.19704437255859 24.4698486328125 L 15.32291221618652 37.2359504699707 C 15.11361885070801 37.44524383544922 14.84036827087402 37.548828125 14.56650924682617 37.548828125 M 17.28554534912109 -5.000007629394531 C 21.41594505310059 -5.000007629394531 25.01031684875488 -2.661109924316406 26.81378364562988 0.7618484497070313 L 30.24970054626465 0.7618484497070313 C 35.38953399658203 0.7618484497070313 39.57109069824219 4.943405151367188 39.57109069824219 10.08323669433594 L 39.57109069824219 41.77339172363281 C 39.57109069824219 46.91322708129883 35.38953399658203 51.09478378295898 30.24970054626465 51.09478378295898 L 4.321390151977539 51.09478378295898 C -0.8184432983398438 51.09478378295898 -5 46.91322708129883 -5 41.77339172363281 L -5 10.08323669433594 C -5 4.943405151367188 -0.8184432983398438 0.7618484497070313 4.321390151977539 0.7618484497070313 L 7.757307052612305 0.7618484497070313 C 9.560773849487305 -2.661109924316406 13.1551456451416 -5.000007629394531 17.28554534912109 -5.000007629394531 Z" stroke="none" fill="#fff"/>
  </g>
</svg>
