<svg xmlns="http://www.w3.org/2000/svg" width="48.552" height="46.24" viewBox="0 0 48.552 46.24">
  <g id="table-clock" transform="translate(-2 -3)" opacity="0.15">
    <path id="Path_3083" data-name="Path 3083" d="M35.524,32.64l5.641,3.26-1.734,3.006-7.375-4.254V26.12h3.468v6.52m8.092-12.855V7.624A4.624,4.624,0,0,0,38.992,3H6.624A4.638,4.638,0,0,0,2,7.624V35.368a4.624,4.624,0,0,0,4.624,4.624H19.756a16.177,16.177,0,1,0,23.86-20.207m-4.624-7.537v5.294a16.8,16.8,0,0,0-4.624-.67,16.044,16.044,0,0,0-9.248,2.913V12.248H38.992m-32.368,0H20.5V21.5H6.624V12.248m0,23.12V26.12H19.756a16.23,16.23,0,0,0-1.572,6.936,15.338,15.338,0,0,0,.185,2.312H6.624m27.744,9.248a11.56,11.56,0,1,1,11.56-11.56A11.564,11.564,0,0,1,34.368,44.616Z" transform="translate(0 0)" fill="#fff"/>
  </g>
</svg>
