<svg id="svg" xmlns="http://www.w3.org/2000/svg" width="19.53" height="19.53" viewBox="0 0 19.53 19.53">
  <path id="Vector" d="M1.35.675V5.4H5.375a.675.675,0,1,1,0,1.35H.675a.65.65,0,0,1-.477-.2A.65.65,0,0,1,0,6.075V.675A.65.65,0,0,1,.2.2.65.65,0,0,1,.675,0a.65.65,0,0,1,.477.2.65.65,0,0,1,.2.477Z" transform="translate(8.825 4.738)" fill="#38a089" fill-rule="evenodd"/>
  <path id="Vector-2" data-name="Vector" d="M0,9.765a9.409,9.409,0,0,1,2.86-6.9A9.409,9.409,0,0,1,9.765,0a9.409,9.409,0,0,1,6.9,2.86,9.409,9.409,0,0,1,2.86,6.9,9.409,9.409,0,0,1-2.86,6.9,9.409,9.409,0,0,1-6.9,2.86,9.409,9.409,0,0,1-6.9-2.86A9.409,9.409,0,0,1,0,9.765Zm1.35,0a8.108,8.108,0,0,0,2.465,5.95,8.108,8.108,0,0,0,5.95,2.465,8.108,8.108,0,0,0,5.95-2.465,8.108,8.108,0,0,0,2.465-5.95,8.108,8.108,0,0,0-2.465-5.95A8.108,8.108,0,0,0,9.765,1.35a8.108,8.108,0,0,0-5.95,2.465A8.108,8.108,0,0,0,1.35,9.765Z" fill="#38a089" fill-rule="evenodd"/>
</svg>
