<svg xmlns="http://www.w3.org/2000/svg" width="22.35" height="18.403" viewBox="0 0 22.35 18.403">
  <path id="twitter" d="M20.205,5.477q0-.122,0-.229A9.845,9.845,0,0,0,22.232,3.08a.675.675,0,0,0-.826-1l-.062.027a5.192,5.192,0,0,0,.388-.907A.651.651,0,0,0,21.69.684.65.65,0,0,0,21.3.35a.675.675,0,0,0-.552.062,7.732,7.732,0,0,1-2.171.882A4.745,4.745,0,0,0,15.21,0a4.791,4.791,0,0,0-3.516,1.457,4.794,4.794,0,0,0-1.457,3.518q0,.124.007.247A11.022,11.022,0,0,1,2.669,1.035a.675.675,0,0,0-.95-.1.675.675,0,0,0-.157.182A4.861,4.861,0,0,0,.884,3.635,4.93,4.93,0,0,0,1.436,6a.675.675,0,0,0-.56.5.673.673,0,0,0-.022.17v.053A4.588,4.588,0,0,0,2.5,10.611a.676.676,0,0,0-.141.467.678.678,0,0,0,.031.155,4.562,4.562,0,0,0,2.832,3.147,7.744,7.744,0,0,1-3.5.793,8.3,8.3,0,0,1-.967-.049.675.675,0,0,0-.665.346.675.675,0,0,0,.227.893A12.582,12.582,0,0,0,7.286,18.4a12.354,12.354,0,0,0,9.16-3.76,12.358,12.358,0,0,0,3.759-9.166ZM7.07,13.335a3.289,3.289,0,0,1-2.976-1.574A5.205,5.205,0,0,0,5.145,11.6a.675.675,0,0,0,.392-1.026.675.675,0,0,0-.428-.289A3.2,3.2,0,0,1,2.3,7.711a4.993,4.993,0,0,0,1.153.178.675.675,0,0,0,.588-.3.675.675,0,0,0-.187-.936A3.427,3.427,0,0,1,2.234,3.631a3.589,3.589,0,0,1,.113-.915,12.3,12.3,0,0,0,8.638,3.92.675.675,0,0,0,.694-.815,4.144,4.144,0,0,1-.092-.845q0-3.625,3.627-3.625a3.476,3.476,0,0,1,2.651,1.143.675.675,0,0,0,.62.2q.389-.075.767-.181a3.888,3.888,0,0,1-.4.271.674.674,0,0,0-.326.657.675.675,0,0,0,.747.594q.169-.019.336-.044-.238.2-.492.388a.675.675,0,0,0-.274.6q.012.161.012.513a11.062,11.062,0,0,1-3.364,8.2,11.067,11.067,0,0,1-8.209,3.364,11.327,11.327,0,0,1-3.909-.665,9.034,9.034,0,0,0,4.1-1.847.675.675,0,0,0,.258-.52.675.675,0,0,0-.663-.686Z" transform="translate(0 0)" fill="#38a089" fill-rule="evenodd"/>
</svg>
