<svg id="youtube" xmlns="http://www.w3.org/2000/svg" width="17" height="11.953" viewBox="0 0 17 11.953">
  <path id="Path_3079" data-name="Path 3079" d="M31.578,65.87a2.136,2.136,0,0,0-1.5-1.513A50.481,50.481,0,0,0,23.433,64a50.481,50.481,0,0,0-6.642.358,2.136,2.136,0,0,0-1.5,1.513,24.051,24.051,0,0,0,0,8.237,2.1,2.1,0,0,0,1.5,1.489,50.48,50.48,0,0,0,6.642.358,50.48,50.48,0,0,0,6.642-.358,2.1,2.1,0,0,0,1.5-1.489,24.051,24.051,0,0,0,0-8.237Zm-9.883,6.646V67.461l4.443,2.528Z" transform="translate(-14.933 -64)" fill="#fff"/>
</svg>
